<svg width="216" height="26" viewBox="0 0 216 26" fill="none" xmlns="http://www.w3.org/2000/svg">
<path d="M62.6563 7.38992V18.8446H65.4068C66.1088 18.8338 66.8015 18.6769 67.4441 18.3832C68.0866 18.0895 68.6659 17.665 69.1476 17.1348C70.1365 16.0478 70.6775 14.6029 70.6555 13.1078C70.6764 12.3652 70.5559 11.6256 70.3007 10.9315C70.0456 10.2375 69.6609 9.60256 69.1687 9.06334C68.6849 8.53238 68.1016 8.10986 67.4546 7.82182C66.8077 7.53377 66.1108 7.38629 65.4068 7.38846H62.6577L62.6563 7.38992ZM65.4068 3.7984C70.5334 3.7984 74.4117 7.92297 74.4117 13.1078C74.4117 18.2926 70.5334 22.4405 65.4068 22.4405H59.3405C59.2826 22.4398 59.2255 22.4272 59.1723 22.4035C59.1192 22.3798 59.071 22.3455 59.0307 22.3025C58.9903 22.2595 58.9585 22.2086 58.937 22.1528C58.9156 22.0971 58.9049 22.0374 58.9056 21.9774V4.28047C58.9056 4.02414 59.1006 3.81588 59.3405 3.81588L65.4068 3.7984ZM87.6259 19.2437C89.9542 19.251 92.0568 17.764 92.953 15.4759C93.3921 14.358 93.5094 13.1319 93.2908 11.9461C93.0723 10.7604 92.5271 9.66589 91.7215 8.79536C90.93 7.93912 89.907 7.35237 88.7876 7.11261C87.6681 6.87286 86.505 6.99139 85.4518 7.45255C83.3001 8.3963 81.8947 10.629 81.8905 13.1078C81.8905 16.4867 84.4545 19.2277 87.6273 19.2437H87.6259ZM87.6273 3.37604C93.0232 3.37604 97.1483 7.79189 97.1483 13.1078C97.1483 18.4237 93.0232 22.8396 87.6259 22.8396C82.2299 22.8396 78.1399 18.4456 78.1399 13.1078C78.1399 7.77004 82.265 3.37604 87.6259 3.37604H87.6273ZM110.256 19.2437C113.43 19.2349 115.998 16.4911 115.995 13.1122C115.991 9.73038 113.417 6.99232 110.245 6.99086C107.069 6.99086 104.494 9.72747 104.49 13.1078C104.49 14.7361 105.097 16.2974 106.178 17.4479C106.708 18.0149 107.341 18.466 108.041 18.7745C108.741 19.0829 109.494 19.2424 110.254 19.2437H110.256ZM110.254 3.37604C115.634 3.37604 119.759 7.77004 119.759 13.1078C119.759 18.4456 115.617 22.8396 110.254 22.8396C104.894 22.8396 100.733 18.4456 100.733 13.1078C100.733 7.77004 104.859 3.37604 110.254 3.37604ZM132.34 7.38992H128.462V12.3199H132.34C132.647 12.334 132.953 12.2827 133.239 12.1693C133.526 12.0558 133.787 11.8825 134.007 11.6601C134.455 11.2086 134.711 10.5824 134.716 9.92408C134.728 9.59011 134.674 9.25721 134.558 8.94536C134.442 8.63352 134.267 8.34917 134.043 8.10939C133.823 7.87341 133.558 7.68788 133.265 7.56472C132.971 7.44156 132.656 7.3835 132.34 7.39429V7.38992ZM124.71 4.28047C124.71 4.02414 124.906 3.81588 125.146 3.81588H132.448C135.93 3.81588 138.449 6.53209 138.449 9.94302C138.475 12.25 137.262 14.3691 135.325 15.4017L138.693 21.7414C138.739 21.8143 138.766 21.8991 138.769 21.9866C138.771 22.074 138.751 22.1605 138.71 22.2366C138.669 22.3115 138.609 22.3728 138.535 22.413C138.462 22.4533 138.38 22.4709 138.297 22.4638H135.342C135.26 22.465 135.179 22.4422 135.109 22.3978C135.039 22.3535 134.983 22.2895 134.946 22.2133L131.701 15.9391H128.448V21.9628C128.449 22.023 128.438 22.0828 128.417 22.1387C128.396 22.1947 128.364 22.2457 128.323 22.2888C128.283 22.332 128.235 22.3665 128.182 22.3902C128.128 22.414 128.071 22.4267 128.013 22.4274H125.166C125.108 22.4267 125.051 22.414 124.997 22.3902C124.944 22.3665 124.896 22.332 124.855 22.2888C124.815 22.2457 124.783 22.1947 124.762 22.1387C124.741 22.0828 124.73 22.023 124.731 21.9628L124.711 4.28193L124.71 4.28047ZM148.228 7.4773V18.9335H150.977C151.679 18.9236 152.371 18.7677 153.014 18.475C153.657 18.1823 154.237 17.7588 154.719 17.2295C155.708 16.1437 156.25 14.6999 156.23 13.2054C156.252 12.4619 156.133 11.7211 155.878 11.0257C155.624 10.3303 155.239 9.69409 154.747 9.15364C154.263 8.62178 153.678 8.19874 153.03 7.91067C152.382 7.62259 151.683 7.4756 150.978 7.47876L148.228 7.4773ZM150.977 3.88141C156.104 3.88141 159.982 8.01035 159.982 13.2054C159.982 18.4004 156.104 22.5294 150.977 22.5294H144.929C144.871 22.5286 144.814 22.516 144.76 22.4922C144.707 22.4684 144.659 22.434 144.619 22.3908C144.578 22.3476 144.546 22.2966 144.525 22.2407C144.504 22.1847 144.493 22.1249 144.494 22.0648V4.36931C144.494 4.11153 144.689 3.90326 144.929 3.90326L150.978 3.88141H150.977ZM171.422 8.43708L169.294 14.5628H173.545L171.422 8.43708ZM168.046 18.0247L166.653 22.1026C166.625 22.1986 166.567 22.2821 166.488 22.3402C166.409 22.3982 166.314 22.4273 166.218 22.423H163.197C163.12 22.4305 163.042 22.4163 162.972 22.382C162.903 22.3476 162.843 22.2944 162.8 22.2279C162.756 22.1606 162.729 22.0826 162.722 22.0015C162.716 21.9203 162.729 21.8388 162.762 21.7647L169.29 4.08531C169.32 3.99208 169.379 3.91174 169.458 3.85652C169.536 3.80131 169.63 3.77425 169.724 3.77947H173.105C173.2 3.77392 173.294 3.80083 173.373 3.85607C173.451 3.91131 173.51 3.99183 173.541 4.08531L180.069 21.7647C180.101 21.8389 180.115 21.9205 180.108 22.0017C180.101 22.0828 180.074 22.1607 180.03 22.2279C179.986 22.2941 179.926 22.3471 179.857 22.3811C179.787 22.4152 179.709 22.4292 179.633 22.4216H176.613C176.516 22.4259 176.421 22.3967 176.343 22.3387C176.264 22.2807 176.206 22.1971 176.178 22.1012L174.785 18.0232H168.046V18.0247ZM183.571 8.83468C183.571 5.90729 185.947 3.37604 189.699 3.37604C191.72 3.32919 193.676 4.11399 195.141 5.55921C195.186 5.60304 195.222 5.65587 195.246 5.71447C195.27 5.77307 195.283 5.8362 195.283 5.90001C195.283 5.96381 195.27 6.02695 195.246 6.08555C195.222 6.14414 195.186 6.19698 195.141 6.24081L193.468 8.01035C193.428 8.05334 193.38 8.08753 193.327 8.11087C193.274 8.13422 193.217 8.14625 193.16 8.14625C193.102 8.14625 193.045 8.13422 192.992 8.11087C192.939 8.08753 192.891 8.05334 192.851 8.01035C192.063 7.24329 191.028 6.80868 189.948 6.79133C188.447 6.79133 187.337 7.71907 187.337 8.78953C187.337 12.25 196.206 10.2532 196.206 16.912C196.202 20.2865 193.808 22.8396 189.574 22.8396C188.399 22.8521 187.233 22.619 186.146 22.1541C185.059 21.6892 184.073 21.0021 183.247 20.1336C183.203 20.0897 183.167 20.0369 183.143 19.9783C183.118 19.9197 183.106 19.8566 183.106 19.7928C183.106 19.729 183.118 19.6658 183.143 19.6072C183.167 19.5486 183.203 19.4958 183.247 19.452L184.866 17.7276C184.906 17.6825 184.955 17.6465 185.009 17.6219C185.064 17.5973 185.122 17.5846 185.181 17.5846C185.241 17.5846 185.299 17.5973 185.354 17.6219C185.408 17.6465 185.457 17.6825 185.497 17.7276C186.516 18.7761 187.888 19.3716 189.322 19.3879C191.197 19.3879 192.433 18.3218 192.433 16.9862C192.433 13.5243 183.568 15.5225 183.568 8.86236L183.571 8.83468ZM212.289 4.25717V11.2538H204.782V4.25717C204.782 4.19711 204.772 4.13749 204.75 4.08171C204.729 4.02594 204.697 3.97509 204.657 3.93208C204.616 3.88907 204.568 3.85475 204.515 3.83106C204.462 3.80737 204.405 3.79479 204.347 3.79403H201.5C201.442 3.79479 201.385 3.80737 201.331 3.83106C201.278 3.85475 201.23 3.88907 201.19 3.93208C201.149 3.97509 201.118 4.02594 201.096 4.08171C201.075 4.13749 201.064 4.19711 201.065 4.25717V21.9337C201.065 22.19 201.261 22.3983 201.5 22.3983H204.347C204.585 22.3983 204.782 22.19 204.782 21.9337V14.8264H212.283V21.9337C212.283 22.19 212.479 22.3983 212.718 22.3983H215.565C215.805 22.3983 216 22.19 216 21.9337V4.25717C216.001 4.19711 215.99 4.13749 215.969 4.08171C215.947 4.02594 215.915 3.97509 215.875 3.93208C215.835 3.88907 215.786 3.85475 215.733 3.83106C215.68 3.80737 215.623 3.79479 215.565 3.79403H212.718C212.602 3.79708 212.492 3.84741 212.412 3.9341C212.331 4.0208 212.287 4.13687 212.289 4.25717V4.25717ZM42.9227 6.15342C40.9478 2.35218 37.0836 -0.0144973 32.8813 6.68352e-05H1.08653C0.871813 0.00097183 0.662097 0.0674629 0.483516 0.191255C0.304935 0.315048 0.165383 0.490668 0.0822496 0.696234C0.000331138 0.900481 -0.021004 1.12547 0.0209767 1.34239C0.0629574 1.5593 0.166343 1.75827 0.317891 1.9138L7.24407 9.05023C7.85561 9.68232 8.68877 10.0362 9.5556 10.0362H31.9696C33.5672 10.0187 34.873 11.3324 34.8899 12.968C34.9067 14.6035 33.6261 15.9434 32.0285 15.9595H16.5757C16.3609 15.9596 16.1508 16.0254 15.9717 16.1486C15.7926 16.2719 15.6524 16.4472 15.5687 16.6527C15.486 16.8572 15.4641 17.0827 15.5058 17.3002C15.5476 17.5177 15.651 17.7173 15.8029 17.8732L22.7333 25.0155C23.3487 25.6472 24.1794 26.0011 25.0448 26H32.0341C41.1273 26 48.003 16.0381 42.9227 6.14905" fill="#B3B3B3"/>
</svg>
