<svg width="2249" height="492" viewBox="0 0 2249 492" fill="none" xmlns="http://www.w3.org/2000/svg">
<path d="M879.27 20.1668C880.86 17.1088 879.27 12.5217 877.68 9.46372C874.5 6.40572 871.32 4.87679 866.55 4.87679H755.25L618.51 448.287L566.04 232.698L725.04 24.7537C726.63 23.2247 726.63 21.6958 726.63 20.1668L729.81 10.9927C731.4 7.9347 728.22 4.87679 726.63 4.87679H725.04H612.15L491.31 174.596L543.78 20.1668C545.37 14.0508 542.19 6.40579 534.24 4.87679C532.65 4.87679 531.06 4.87679 531.06 4.87679H419.76L322.77 321.38C324.36 266.336 281.43 225.053 255.99 197.531C235.32 176.125 222.6 159.306 225.78 142.487C228.96 118.023 249.63 99.6747 275.07 99.6747C303.69 98.1457 314.82 105.791 332.31 113.436C333.9 114.965 337.08 114.965 338.67 114.965C340.26 114.965 341.85 114.965 343.44 113.436C346.62 111.907 349.8 108.849 351.39 105.791L376.83 21.6958L359.34 14.0508L356.16 12.5218H354.57C333.9 3.34779 310.05 -1.23926 286.2 0.289744C187.62 0.289744 98.58 67.5658 84.27 150.132C74.73 208.234 112.89 249.517 141.51 278.568L144.69 281.626C165.36 303.032 179.67 318.322 176.49 338.199C171.72 364.192 144.69 379.482 119.25 382.54C90.63 384.069 73.14 376.424 50.88 367.25C47.7 365.721 42.93 364.192 38.16 365.721C33.39 367.25 30.21 370.308 28.62 374.895L3.17998 455.932L0 466.635C0 466.635 49.29 491.099 104.94 491.099C189.21 491.099 260.76 460.519 303.69 385.598L278.25 468.164C276.66 471.222 278.25 475.809 279.84 478.867C283.02 481.925 286.2 483.454 290.97 483.454H402.27L430.89 391.714L464.28 344.315L489.72 472.751C491.31 478.867 496.08 483.454 502.44 483.454H737.76L879.27 20.1668Z" fill="#B3B3B3"/>
<path d="M1178.19 40.0441C1155.93 17.1091 1125.72 3.34817 1092.33 4.87717H906.3L898.35 29.3411C898.35 32.3991 898.35 33.9281 899.94 36.9861L904.71 44.6311C909.48 52.2761 911.07 61.4501 907.89 70.6241L787.05 463.577C785.46 469.693 788.64 477.338 795 478.867C796.59 478.867 796.59 478.867 798.18 478.867H906.3L939.69 368.779H988.98C1106.64 370.308 1165.47 290.8 1192.5 205.176C1203.63 170.009 1208.4 144.016 1208.4 127.197C1209.99 92.0302 1200.45 64.5081 1178.19 40.0441ZM1089.15 140.958C1087.56 163.893 1079.61 191.415 1068.48 214.35C1054.17 243.401 1041.45 266.336 1004.88 269.394H973.08L1022.37 107.32H1063.71C1070.07 107.32 1074.84 108.849 1079.61 113.436C1085.97 119.552 1089.15 128.726 1089.15 140.958Z" fill="#B3B3B3"/>
<path d="M1334.01 203.646H1260.87L1178.19 472.75C1176.6 475.808 1179.78 478.866 1182.96 480.395H1184.55H1252.92C1362.63 480.395 1400.79 348.901 1403.97 293.857C1407.15 232.697 1372.17 203.646 1334.01 203.646ZM1346.73 293.857C1345.14 327.495 1318.11 432.996 1265.64 432.996H1248.15L1303.8 247.987H1319.7C1335.6 249.516 1348.32 263.277 1346.73 293.857Z" fill="#B3B3B3"/>
<path d="M1486.65 15.5802C1486.65 14.0512 1486.65 10.9932 1483.47 10.9932C1483.47 10.9932 1483.47 10.9932 1481.88 10.9932H1454.85L1435.77 73.6823H1403.97L1421.46 15.5802C1421.46 14.0512 1421.46 10.9932 1418.28 10.9932C1418.28 10.9932 1418.28 10.9932 1416.69 10.9932H1389.66L1343.55 160.835C1343.55 162.364 1343.55 165.422 1346.73 165.422C1346.73 165.422 1346.73 165.422 1348.32 165.422H1375.35L1396.02 98.1462H1427.82L1408.74 160.835C1408.74 162.364 1408.74 165.422 1411.92 165.422C1411.92 165.422 1411.92 165.422 1413.51 165.422H1440.54L1486.65 15.5802Z" fill="#B3B3B3"/>
<path d="M1582.05 10.9932H1513.68V14.0512L1469.16 162.364C1469.16 163.893 1469.16 166.951 1472.34 166.951C1472.34 166.951 1472.34 166.951 1473.93 166.951H1542.3L1548.66 145.545C1548.66 144.016 1548.66 142.487 1547.07 140.958H1545.48H1508.91L1521.63 101.204H1555.02L1561.38 79.7982C1561.38 78.2692 1561.38 75.2112 1558.2 75.2112C1558.2 75.2112 1558.2 75.2112 1556.61 75.2112H1527.99L1539.12 38.5152H1580.46L1586.82 17.1092C1585.23 12.5222 1585.23 10.9932 1582.05 10.9932Z" fill="#B3B3B3"/>
<path d="M1368.99 36.9862L1375.35 15.5802C1375.35 14.0512 1375.35 10.9932 1372.17 10.9932C1372.17 10.9932 1372.17 10.9932 1370.58 10.9932H1292.67L1286.31 32.3992C1286.31 33.9282 1286.31 36.9862 1289.49 36.9862C1289.49 36.9862 1289.49 36.9862 1291.08 36.9862H1311.75L1273.59 162.364C1273.59 163.893 1273.59 166.951 1276.77 166.951C1276.77 166.951 1276.77 166.951 1278.36 166.951H1305.39L1345.14 36.9862H1368.99Z" fill="#B3B3B3"/>
<path d="M1520.04 203.646H1472.34L1389.66 472.75C1388.07 475.808 1389.66 478.866 1394.43 480.395H1396.02H1443.72L1526.4 211.291C1527.99 208.233 1524.81 205.175 1521.63 203.646H1520.04Z" fill="#B3B3B3"/>
<path d="M1911.18 211.291C1912.77 208.233 1911.18 205.175 1908 203.646H1906.41H1858.71L1825.32 315.263H1768.08L1799.88 211.291C1801.47 208.233 1799.88 205.175 1795.11 203.646H1793.52H1745.82L1663.14 472.75C1661.55 475.808 1663.14 478.866 1667.91 480.395H1669.5H1717.2L1753.77 361.133H1811.01L1777.62 472.75C1776.03 475.808 1777.62 478.866 1780.8 480.395H1782.39H1830.09L1911.18 211.291Z" fill="#B3B3B3"/>
<path d="M2078.13 203.646H1955.7L1873.02 472.75C1871.43 475.808 1873.02 478.866 1877.79 480.395H1879.38H2001.81L2012.94 442.17C2014.53 439.112 2012.94 436.054 2008.17 434.525H2006.58H1941.39L1963.65 362.662H2020.89L2033.61 324.437C2035.2 321.379 2033.61 318.321 2028.84 316.792H2027.25H1976.37L1997.04 249.516H2070.18L2081.31 211.291C2082.9 208.233 2081.31 205.175 2078.13 203.646Z" fill="#B3B3B3"/>
<path d="M1601.13 278.568C1604.31 260.22 1620.21 246.459 1639.29 244.93C1650.42 244.93 1661.55 246.459 1671.09 251.046C1675.86 252.575 1680.63 251.046 1683.81 246.459C1683.81 246.459 1683.81 246.459 1683.81 244.93L1694.94 208.234C1680.63 202.118 1664.73 199.06 1647.24 199.06C1596.36 199.06 1545.48 235.756 1537.53 284.684C1532.76 318.322 1553.43 341.257 1569.33 359.605C1582.05 373.366 1591.59 385.598 1590 400.888C1585.23 423.823 1567.74 434.526 1548.66 436.055C1534.35 437.584 1526.4 436.055 1510.5 429.939C1505.73 428.41 1500.96 428.41 1499.37 432.997C1499.37 432.997 1499.37 434.526 1497.78 434.526L1485.06 475.809C1502.55 481.925 1521.63 484.983 1540.71 484.983C1596.36 484.983 1644.06 445.229 1653.6 394.772C1658.37 361.134 1637.7 336.67 1621.8 318.322C1607.49 306.09 1597.95 293.858 1601.13 278.568Z" fill="#B3B3B3"/>
<path d="M2154.45 278.568C2157.63 260.22 2173.53 246.459 2192.61 244.93C2203.74 244.93 2214.87 246.459 2224.41 251.046C2229.18 252.575 2233.95 251.046 2237.13 246.459C2237.13 246.459 2237.13 246.459 2237.13 244.93L2248.26 208.234C2233.95 202.118 2218.05 199.06 2200.56 199.06C2149.68 199.06 2098.8 235.756 2090.85 284.684C2086.08 318.322 2106.75 341.257 2122.65 359.605C2135.37 373.366 2144.91 385.598 2143.32 400.888C2138.55 423.823 2121.06 434.526 2101.98 436.055C2087.67 437.584 2079.72 436.055 2063.82 429.939C2059.05 428.41 2054.28 428.41 2052.69 432.997C2052.69 432.997 2052.69 434.526 2051.1 434.526L2038.38 475.809C2055.87 481.925 2074.95 484.983 2094.03 484.983C2149.68 484.983 2197.38 445.229 2206.92 394.772C2211.69 361.134 2191.02 336.67 2175.12 318.322C2162.4 306.09 2151.27 293.858 2154.45 278.568Z" fill="#B3B3B3"/>
</svg>
