<svg width="152" height="24" viewBox="0 0 152 24" fill="none" xmlns="http://www.w3.org/2000/svg">
<path d="M113.73 14.8585C113.73 11.8868 111.304 9.55189 108.244 9.55189C105.227 9.55189 102.758 11.8868 102.758 14.8585C102.758 17.8302 105.227 20.1651 108.244 20.1651C111.304 20.1651 113.73 17.8302 113.73 14.8585V14.8585ZM118.205 6.16981V23.5613H113.643V21.9906C112.055 23.2783 110.048 24 107.868 24C102.469 24 98.2539 19.9387 98.2539 14.8585C98.2539 9.79245 102.484 5.71698 107.868 5.71698C110.048 5.71698 112.055 6.43868 113.643 7.72641V6.16981H118.205V6.16981ZM133.363 19.6132H129.927C128.888 19.6132 128.209 19.1745 128.209 18.2406V10.1038H133.348V6.16981H128.209V1.21698H123.604V6.16981H120.139V10.1179H123.604V19.3585C123.604 21.6934 125.322 23.5472 128.411 23.5472H133.348V19.6132H133.363ZM143.757 24C149.026 24 152 21.5802 152 18.2406C152 15.8632 150.239 14.0943 146.558 13.3302L142.66 12.566C140.408 12.1698 139.686 11.7594 139.686 10.9528C139.686 9.90566 140.769 9.26887 142.775 9.26887C144.955 9.26887 146.543 9.83491 147.005 11.7594H151.567C151.322 8.13679 148.593 5.71698 143.078 5.71698C138.314 5.71698 134.965 7.61321 134.965 11.2783C134.965 13.8113 136.813 15.467 140.783 16.2736L145.128 17.2358C146.846 17.5613 147.308 18 147.308 18.6792C147.308 19.7689 146.009 20.4481 143.916 20.4481C141.288 20.4481 139.773 19.8821 139.195 17.9575H134.59C135.268 21.5802 138.069 24 143.757 24V24ZM79.8477 0H97.0412V4.01887H84.4961V9.7783H96.7092V13.684H84.4961V19.5142H97.0412V23.533H79.8477V0Z" fill="#B3B3B3"/>
<path d="M71.676 9.41038V6.25472H70.4489C68.5 6.25472 67.0564 7.13207 66.1902 8.50472V6.38207H62.6966V23.5189H66.2191V13.783C66.2191 11.1226 67.8937 9.41038 70.2035 9.41038H71.676V9.41038ZM46.3259 13.3726C46.9611 10.7547 49.1554 9 51.7684 9C54.3814 9 56.5901 10.7406 57.182 13.3726H46.3259ZM51.8406 6.0566C46.6435 6.0566 42.688 10.1179 42.688 14.9575C42.688 20.066 46.8023 23.9009 52.1582 23.9009C55.4063 23.9009 58.0626 22.5283 59.8383 20.2358L57.283 18.4245C55.9549 20.1368 54.2081 20.9434 52.1437 20.9434C49.141 20.9434 46.7301 18.8632 46.2393 16.0755H60.7333V14.9717C60.7477 9.84906 56.9799 6.0566 51.8406 6.0566ZM31.6876 20.9434C28.2662 20.9434 25.5377 18.283 25.5377 15C25.5377 11.6745 28.295 9.0566 31.6876 9.0566C35.0368 9.0566 37.7941 11.6745 37.7941 15C37.8085 18.283 35.0512 20.9434 31.6876 20.9434ZM22.0875 23.533H25.581V21.3821C27.1835 22.967 29.4644 23.9292 31.933 23.9292C37.1733 23.9292 41.2877 19.9245 41.2877 14.9858C41.2877 10.0189 37.1733 6.01415 31.933 6.01415C29.4499 6.01415 27.2123 6.99056 25.6099 8.56132V0H22.0875V23.533V23.533ZM9.68672 20.7736C13.0792 20.7736 15.6922 18.2547 15.6922 14.5189V0H19.359V23.5189H15.7211V21.3396C14.0753 22.9811 11.8089 23.9292 9.25364 23.9292C4.01328 23.9292 0 20.2641 0 14.717V0H3.68124V14.5189C3.68124 18.3255 6.26533 20.7736 9.68672 20.7736Z" fill="#B3B3B3"/>
</svg>
